<?xml version="1.0" encoding="utf-8"?><svg xmlns="http://www.w3.org/2000/svg" width="100" height="100" viewBox="200 200 100 100" enable-background="new 200 200 100 100"><path fill="#8BDBF7" d="M276 200h-52c-13.3 0-24 10.7-24 24v52c0 13.3 10.7 24 24 24h52c13.3 0 24-10.7 24-24v-52c0-13.3-10.7-24-24-24z"/><g fill="#FFE74D"><circle cx="219" cy="219.7" r="7.3"/><path d="M219 205.5c-.1 0-.2.1-.2.2v5.3c0 .1.1.2.2.2s.2-.1.2-.2v-5.3c0-.1-.1-.2-.2-.2zm0 22.7c-.1 0-.2.1-.2.2v5.3c0 .1.1.2.2.2s.2-.1.2-.2v-5.3c0-.1-.1-.2-.2-.2zm-5.2-21.5c0-.1-.1-.1-.2-.1s-.1.1-.1.2l2 4.9c0 .1.1.1.2.1s.1-.1.1-.2l-2-4.9zm8.7 20.9c0-.1-.1-.1-.2-.1s-.1.1-.1.2l2 4.9c0 .1.1.1.2.1s.1-.1.1-.2l-2-4.9zm-13.3-17.9c-.1-.1-.2-.1-.3 0-.1.1-.1.2 0 .3l3.8 3.8c.1.1.2.1.3 0 .1-.1.1-.2 0-.3l-3.8-3.8zm16 16c-.1-.1-.2-.1-.3 0-.1.1-.1.2 0 .3l3.8 3.8c.1.1.2.1.3 0 .1-.1.1-.2 0-.3 0 0-3.8-3.8-3.8-3.8zm-14.2-9.5l-4.9-2.1c-.1 0-.2 0-.2.1s0 .2.1.2l4.9 2c.1 0 .2 0 .2-.1.1.1 0-.1-.1-.1zm21 8.7l-4.9-2c-.1 0-.2 0-.2.1s0 .2.1.2l4.9 2c.1 0 .2 0 .2-.1s0-.2-.1-.2zm-21.7-5.4H205c-.1 0-.2.1-.2.2s.1.2.2.2h5.3c.1 0 .2-.1.2-.2s-.1-.2-.2-.2zm22.7 0h-5.3c-.1 0-.2.1-.2.2s.1.2.2.2h5.3c.1 0 .2-.1.2-.2s-.1-.2-.2-.2zm-22.1 3.3l-4.9 2c-.1 0-.1.1-.1.2s.1.1.2.1l4.9-2c.1 0 .1-.1.1-.2 0 0-.1-.1-.2-.1zm21-8.6l-4.9 2c-.1 0-.1.1-.1.2s.1.1.2.1l4.9-2c.1 0 .1-.1.1-.2s-.1-.2-.2-.1zm-19.2 11.5l-3.8 3.8c-.1.1-.1.2 0 .3.1.1.2.1.3 0l3.8-3.8c.1-.1.1-.2 0-.3-.1-.1-.2-.1-.3 0zm16.1-16l-3.8 3.8c-.1.1-.1.2 0 .3.1.1.2.1.3 0l3.8-3.8c.1-.1.1-.2 0-.3-.2-.1-.3-.1-.3 0zm-13.1 17.8c-.1 0-.2 0-.2.1l-2 4.9c0 .1 0 .2.1.2s.2 0 .2-.1l2-4.9c.1 0 0-.1-.1-.2zm8.7-20.9c-.1 0-.2 0-.2.1l-2 4.9c0 .1 0 .2.1.2s.2 0 .2-.1l2-4.9c.1-.1 0-.2-.1-.2z"/></g><path fill="#fff" d="M219 212.4c-4.1 0-7.3 3.3-7.3 7.3 0 1.6.5 3.1 1.4 4.3 5.2-1 9.1-5.1 9.1-10 0-.4 0-.7-.1-1-1-.4-2-.6-3.1-.6z" opacity=".2" enable-background="new"/><path fill="#fff" d="M215.9 244.4c0-1.5-1.2-2.7-2.7-2.7h-1.9c-.4-1.9-2-3.3-4-3.3-.6 0-1.1.1-1.6.3-.8-2.4-3-4.1-5.6-4.3v12.7h13.2c1.4 0 2.6-1.2 2.6-2.7zm76.5 6.7c-.7-.3-1.5-.5-2.3-.5-2.8 0-5 2-5.6 4.6h-2.7c-2.1 0-3.8 1.7-3.8 3.8 0 2.1 1.7 3.8 3.8 3.8H300v-17.7c-3.6.4-6.5 2.8-7.6 6zm-24-33.6H267c-.7-1.7-2.4-2.9-4.3-2.9-2.1 0-3.8 1.3-4.4 3.2-.4-.2-.8-.3-1.2-.3-1.5 0-2.7 1-2.9 2.4h-1.4c-1.1 0-2 .9-2 2s.9 2 2 2h15.7c1.8 0 3.2-1.4 3.2-3.2-.1-1.8-1.6-3.2-3.3-3.2z"/><path fill="#43A838" d="M294.4 275.7l-3.3 6.9c-.1.2-.3.2-.4 0l-6.4-9.1c-.1-.2-.4-.1-.4.1l-3 14.9c0 .2-.4.3-.5 0l-5.3-21.3c-.1-.2-.4-.2-.5 0l-4.5 16.2c-.1.2-.4.2-.4 0l-5.2-11.6c-.1-.2-.4-.2-.4 0l-4.2 13.9c-.1.2-.4.2-.5 0l-2.5-10.2c-.1-.2-.4-.2-.5 0l-6.8 16.2c-.1.2-.4.2-.4 0l-9.1-21.5c-.1-.2-.5-.2-.5.1.3 4.1.8 15.5-3.4 20.8-.1.1-.3.1-.4-.1l-4.5-12.4c-.1-.2-.4-.2-.5 0l-3.7 13c-.1.2-.3.2-.4.1-1.3-2.4-6.9-13.1-4.1-22.6 0 0-7.3 9.5-7.5 16.6 0 .3-.4.3-.5.1l-3-8c-.1-.2-.4-.2-.5 0l-3.7 13.1c-.1.3-.4.2-.5 0-.3-2.8-1.6-9.4-7.1-15.7v.9c0 13.3 10.7 24 24 24h52c9.5 0 17.8-5.6 21.7-13.6l-2.9-10.6c.1-.4-.1-.4-.2-.2z"/><circle cx="215.4" cy="294.9" r="2" fill="#338727"/><path fill="#338727" d="M219.1 300h3.9c-1.3 0-2.5-.2-3.7-.4 0 .1-.1.2-.2.4zm2-1.5c-.7 0-1.4.4-1.8 1 1.2.2 2.4.4 3.7.4-.2-.8-1-1.4-1.9-1.4z"/><circle cx="289.3" cy="291.9" r="2" fill="#338727"/><path fill="#EFD6B8" d="M210.1 265.1l2.5-3.9h5.2l5.1-5.8 3.3-.3s1.4-3.9.8-5c-6.6-10.5 0-14.8 0-14.8-.9 9.8 4.7 9.9 4.7 9.9l13.7.1 10-4-.9-4.6 3.8-2.3 6.3.8 6.1-.6 2.7 2.4 5.1 1.6-3.5 4.6-2.3.3 1.8 1.7-11.9 7 3.2 1.7 8.5.6 7.3 3.6-3 2.4-6.2-1.3-9.5.6-5.9-2.3-7.9 1.8-9.5-2.9-4.1 3.1-9.6 1.5-5.9 4.1-8.4.7-1.5-.7z"/><path fill="#E7C59E" d="M210.1 265.1s2-1.6 4.3-2.1c.5-.1 4.1.1 5.1-.5 1.8-1.2 2.7-5.1 4.5-5.7 1.2-.4 2.4.3 3.1 0 .4-.2 1.2-1.1 1-1.5-1-1.7.2-6.1.2-6.1-4.3-3.5-3.1-9.6-3.1-9.6 1.1 7.5 7.1 7.7 7.1 7.7s12.9.9 17-.2c4.9-1.3 9.2-4.5 9.2-4.5s-4.1-3-4-4.6c.1-1.2 3.7-3.3 3.7-3.3l7.3 1.4s3.5-.5 4.5-.1c.9.4 2 2.2 2.9 2.6l5 .8-4.3 4.1 1.3 1.3-1.5 1.5-4.1.6-6.5 4.8-2-1s-.8 1.4-.8 1.9c.3 1.9 4.4 3.3 4.4 3.3s7.4.3 8.7.5c2 .3 7.3 3 7.3 3l-3 1.5-5.3-2.3-9.5 1.1-6.3-2-8.4 1-8-2.3-8.1 3.8-7.2.8-6.1 4.5c.5.2-8.4-.4-8.4-.4z"/><path fill="#C39A73" d="M217.3 266.6h-5.9v-2.4h5.4c1.2-.6 3.3-2.1 4.8-3.3.7-.5 1.4-1 1.8-1.3 2.6-1.8 9.4-2 10.8-2 2.4-.8 5.5-3.1 5.5-3.2l.6-.4 2 .9 12 .6.3.7c.2.5.1 1.1-.2 1.6-.9 1.4-4.4 1.8-7.2 1.8l-.1-2.1-5.5-.3-1.1-.5c-1.1.8-3.7 2.5-5.8 3.2l-.2.1h-.2c-2.9 0-8 .5-9.7 1.6-.4.3-1 .8-1.8 1.3-1.8 1.4-4.1 3.1-5.5 3.6v.1zm46.8-28.9s-3.5-1.1-5.6-.8c-.8.1-3 1.3-3 1.3l1.6 3.9 7-4.4zm-2.7 3.8s2.6 3.5 2.5 4.9c-.1 1.4-3 4.6-3 4.6l1.6.8 6-4.9 6.1-2.1c-11.1.9-13.2-3.3-13.2-3.3zm18.6 10.2l-7.6-2.3-7.7.2-1.7 2.1 2.8 2.2 10.2 1.2 2.9-1.2 1.1-2.2zm-71.3 8.8l3.2-3.5h4.7l5.1-5.8 5.4-.4-.1 4.2-4.3.1-4.8 6.1-9.2-.7z"/><path d="M218.7 266.9h-7.1c-.2 0-1.2-.1-1.9-1.6 0-.1-.1-.2-.1-.3 0-.1-.4-2.9 3.5-4.8 0 0 .1 0 .1-.1.1 0 1-.3 2.4-.3.6 0 1.2.1 1.8.2l4.9-5.6c.2-.2.5-.4.8-.4l2.6-.1c-.1-1.2-.1-2.9.6-4.4-1.2-1.2-3.3-3.7-3.4-7.2-.1-3.1 1.3-6 4.3-8.8.4-.4 1-.4 1.4-.1.4.3.5.9.3 1.4 0 0-1.9 3.4-.7 6.2.7 1.5 2.2 2.6 4.6 3.2l4.9-.3s0 0 .1 0h8.3c1.8-.5 6.2-1.8 8.3-3.4-.7-1-1.5-2.8-.9-4.5.6-1.7 3.5-2.9 4.8-3 .1 0 .1 0 .2 0 1 0 3.3.3 5 .7.1-.3.2-.4.6-.5.3-.1.9-.2 2.5-.2 1.9 0 4.2 0 4.3 0 .1 0 .4.2.6.3.9.4 2 1.6 2.7 2.4 0 0 .5.2.5.2 4 0 4.5.9 4.8 1.7 1.1 2.5-1.8 5-2.2 5.3l-1.1.8c-.4.3-.6.7-1 .4 0 0-.4-.4-.4-.4s.5.4.5.4l.4.6c.3.2.4.6.3.9 0 .3-.2.7-.5.8l-1.4.8c-.2.1-.4.2-.6.1 0 0-.4 0-.9 0-2.1 0-3.8.4-4.5 1-.1.1-.2.1-.3.2 0 0-1.5.7-3.5 3.4l1.9.9 8.3.6c.1 0 .2 0 .3.1.2.1 5.2 1.8 7.7 3.8.4.3.6.9.5 1.4-.3 1.5-3.5 2.8-3.9 2.9-.3.1-.7.1-1.3.1-.2 0-.9 0-1.4-.1-1.1-.2-3.2-1.3-4.1-1.7l-10 1.2c-.2 0-.4 0-.6-.1l-3.9-1.8c-.9.6-1.9.9-2.5.9-.2 0-.5.2-.8.2-.2 0-.6 0-1.1 0-1.9 0-5-.1-5-.1-.1 0-.2 0-.4 0l-7.9-2.3s-.1 0-.1 0c-1.1 1.1-2.3 2.2-3.3 2.7-1.4.7-3.7.8-6.1 1-1.9.2-3.8.3-4.8.7-1.2.5-2.2 1.4-3.2 2.3-1.1 1-2.1 2.1-3.7 2.5 0-.2-.1-.2-.2-.2zm-6.9-2.2h6.6c1-.3 1.7-1.1 2.6-2 1-1 2.2-2.1 3.9-2.8 1.3-.5 3.3-.7 5.4-.8 2-.2 4.3-.4 5.4-.8 1-.5 3.3-2.9 4.5-4.3.4-.4 1-.5 1.4-.2.5.3.6.9.4 1.4l-.3.8 6.5 1.9c.7 0 3.2-.1 4.9-.1.5 0 .9 0 1.2 0 0 0 .1 0 .1 0-.5-.3-1.1-.6-1.7-.9-.6-.3-.8-.9-.5-1.5.3-.6.9-.8 1.5-.5l8.5 4 10-1.2c.2 0 .4 0 .6.1 1.1.6 3.1 1.5 3.8 1.7.1 0 .4.1.9.1.4 0 .6 0 .7 0 .5-.1 1.4-.6 1.9-1-2.1-1.4-5.4-2.6-6.1-2.9l-8.4-.6c-.1 0-.3 0-.4-.1l-3.3-1.5c-.3-.1-.5-.4-.6-.7-.1-.3 0-.6.1-.9 2.4-3.7 4.5-4.9 5.1-5.2 1.5-1.1 3.9-1.4 5.8-1.4.2 0 .3 0 .5 0l-1.6-1.5c-.3-.3-.4-.8-.3-1.2.2-.4.6-.7 1-.7 1 0 2.6-.2 3.1-.5.2-.1.8-.5.8-.5.7-.6 1.4-1.2 1.2-1.9-.2-.2-.8-.2-2.8-.4-.3 0-.7-.2-.7-.2-.3 0-.7-.3-.9-.6-.9-1-1.9-1.8-2.4-2.1-.7-.3-2.3-.3-3.9-.2 0 0-.1 0-.1 0 .2.3.2.7 0 1-.3.4-.8.7-1.3.5-2-.6-5.3-1.4-6.4-1.4-.9.1-2.8.9-3 1.4-.4 1 .5 2.6.9 3.1.4.4.4 1 0 1.4-2.4 2.8-9.4 4.6-10.2 4.8-.1 0-.2 0-.3 0l-8.4.2-5.1.1c-.1 0-.2 0-.3 0-3.2-.8-5.3-2.3-6.3-4.5-.4-.9-.6-1.8-.6-2.7-.4 1-.6 2-.6 3 .1 3.7 3.3 6.2 3.3 6.2.2.2.4.5.4.8 0 .3-.1.6-.3.8-1 1.1-.7 3.8-.5 4.6.1.3 0 .7-.2.9-.2.3-.5.4-.8.4l-3.3.1-5 5.7c-.3.3-.7.4-1.1.3 0 0-1.3 0-2 0-.9 0-1.5-.1-1.7 0-1.3 1-1.5 2.1-1.6 2.5z"/><circle cx="269.8" cy="238.6" r=".9"/><circle cx="287.6" cy="243.1" r="4.8"/><circle cx="287.6" cy="243.1" r="2.4" fill="#F9E978"/><path d="M211 262.4c-1.7 0-2.4-.3-2.6-.4-.2-.1-.3-.2-.4-.3-.3-.4-.5-1-.4-1.5.3-1.6 2.4-3.2 3.1-3.7 1.4-1.1 4.1-.8 5.4-.6.2-.3.4-.5.7-.9 2-2.7 3.8-4.9 5.6-5.2 1.2-.2 4.4 0 4.7 0 .6 0 1.1.6 1 1.2 0 .6-.6 1.1-1.2 1-1.3-.1-3.5-.1-4.2 0-1.1.2-3.1 2.9-4.2 4.4-.4.6-.8 1.1-1.1 1.5-.3.3-.7.5-1.1.4-1.4-.3-3.6-.4-4.3.1 0 0 0 0-.1 0-.9.6-1.7 1.4-2 1.9.5.1 1.3.1 2.6 0 .6-.1 1.1.4 1.2 1 .1.6-.4 1.1-1 1.2-.6-.1-1.2-.1-1.7-.1zm65.1-6.2c-.5 0-1-.4-1.1-.9-.1-.6.3-1.2.9-1.3 2-.4 2.8-1.2 3.1-1.7-1.3-.8-6.4-1.9-7.4-1.9-1.4 0-6.8.3-6.8.3-.6 0-1.1-.4-1.2-1 0-.6.4-1.1 1-1.2.2 0 5.5-.3 6.9-.3.6 0 2.9.4 4.9.9 3.8 1 4.7 1.8 4.8 2.7 0 .1 0 .1 0 .2s-.1 3.1-5 4.1c0 .1 0 .1-.1.1zm-13.6-2.9c-.3 0-.7-.1-.9-.4l-.8-1c-.4-.5-.3-1.2.2-1.5.5-.4 1.2-.3 1.5.2l.8 1c.4.5.3 1.2-.2 1.5-.2.1-.4.2-.6.2zm-5.2-10c-.2 0-.4 0-.6-.1-1-.4-1.6-1.6-1.8-2-.2-.6 0-1.2.6-1.4.6-.2 1.2 0 1.4.6.1.3.3.6.5.7 1.4-.7 3-2.1 3-2.1.5-.4 1.2-.3 1.6.1.4.5.3 1.2-.1 1.6-.1.1-2.1 1.8-3.7 2.6-.4-.1-.6 0-.9 0z"/></svg>