<?xml version="1.0" encoding="utf-8"?><svg xmlns="http://www.w3.org/2000/svg" width="500" height="500"><g><path fill="#8BDBF7" d="M380 0H120C53.7 0 0 53.7 0 120v260c0 66.3 53.7 120 120 120h260c66.3 0 120-53.7 120-120V120C500 53.7 446.3 0 380 0z"/><g fill="#FFE74D"><circle cx="94.9" cy="98.5" r="36.7"/><path d="M94.9 27.5c-.5 0-.9.4-.9.9v26.7c0 .5.4.9.9.9s.9-.4.9-.9V28.4c0-.5-.4-.9-.9-.9zM94.9 140.9c-.5 0-.9.4-.9.9v26.7c0 .5.4.9.9.9s.9-.4.9-.9v-26.7c0-.5-.4-.9-.9-.9zM69 33.4c-.2-.5-.7-.7-1.2-.5-.5.2-.7.7-.5 1.2l10.2 24.7c.2.5.7.7 1.2.5.5-.2.7-.7.5-1.2L69 33.4zM112.4 138.2c-.2-.5-.7-.7-1.2-.5-.5.2-.7.7-.5 1.2l10.2 24.7c.2.5.7.7 1.2.5.5-.2.7-.7.5-1.2l-10.2-24.7zM46 48.3c-.4-.4-1-.4-1.3 0-.4.4-.4 1 0 1.3l18.9 18.9c.4.4 1 .4 1.3 0 .4-.4.4-1 0-1.3L46 48.3zM126.2 128.5c-.4-.4-1-.4-1.3 0-.4.4-.4 1 0 1.3l18.9 18.9c.4.4 1 .4 1.3 0 .4-.4.4-1 0-1.3l-18.9-18.9zM55.2 81.1L30.5 70.8c-.5-.2-1 0-1.2.5-.2.5 0 1 .5 1.2l24.7 10.2c.5.2 1 0 1.2-.5.2-.4 0-1-.5-1.1zM160 124.4l-24.7-10.2c-.5-.2-1 0-1.2.5-.2.5 0 1 .5 1.2l24.7 10.2c.5.2 1 0 1.2-.5.2-.4 0-1-.5-1.2zM51.6 97.6H24.9c-.5 0-.9.4-.9.9s.4.9.9.9h26.7c.5 0 .9-.4.9-.9s-.4-.9-.9-.9zM165 97.6h-26.7c-.5 0-.9.4-.9.9s.4.9.9.9H165c.5 0 .9-.4.9-.9s-.4-.9-.9-.9zM54.5 114.2l-24.7 10.2c-.5.2-.7.7-.5 1.2.2.5.7.7 1.2.5l24.7-10.2c.5-.2.7-.7.5-1.2-.2-.4-.7-.7-1.2-.5zM159.3 70.8L134.6 81c-.5.2-.7.7-.5 1.2.2.5.7.7 1.2.5L160 72.6c.5-.2.7-.7.5-1.2-.2-.5-.7-.8-1.2-.6zM63.6 128.5l-18.9 18.9c-.4.4-.4 1 0 1.3.4.4 1 .4 1.3 0l18.9-18.9c.4-.4.4-1 0-1.3-.3-.4-.9-.4-1.3 0zM143.8 48.3l-18.9 18.9c-.4.4-.4 1 0 1.3.4.4 1 .4 1.3 0l18.9-18.9c.4-.4.4-1 0-1.3-.4-.4-.9-.4-1.3 0zM78.7 137.7c-.5-.2-1 0-1.2.5l-10.2 24.7c-.2.5 0 1 .5 1.2.5.2 1 0 1.2-.5l10.2-24.7c.2-.5 0-1-.5-1.2zM122.1 32.9c-.5-.2-1 0-1.2.5l-10.2 24.7c-.2.5 0 1 .5 1.2.5.2 1 0 1.2-.5l10.2-24.7c.2-.4 0-1-.5-1.2z"/></g><path fill="#fff" d="M94.9 61.8c-20.3 0-36.7 16.4-36.7 36.7 0 8.1 2.6 15.6 7.1 21.7 25.9-5.2 45.3-25.6 45.3-49.9 0-1.8-.1-3.5-.3-5.2-4.7-2.1-9.9-3.3-15.4-3.3z" opacity=".2"/><path fill="#fff" d="M79.5 221.9c0-7.5-6.1-13.6-13.6-13.6h-9.6c-1.8-9.3-10.1-16.4-19.9-16.4-2.9 0-5.6.6-8.1 1.7-4.1-12-15.1-20.7-28.2-21.5v63.4H66c7.4.1 13.5-6 13.5-13.6zM462 255.6c-3.5-1.5-7.3-2.4-11.3-2.4-13.8 0-25.2 9.8-27.8 22.8h-13.3c-10.5 0-19 8.5-19 19s8.5 19 19 19H500v-88.3c-17.8 1.6-32.5 13.7-38 29.9zM341.8 87.5h-7.2c-3.5-8.6-11.9-14.6-21.7-14.6-10.3 0-19 6.6-22.1 15.9-1.8-.8-3.9-1.3-6-1.3-7.3 0-13.3 5.2-14.7 12.1h-7c-5.5 0-10 4.5-10 10s4.5 10 10 10h78.7c8.9 0 16.1-7.2 16.1-16.1 0-8.8-7.2-16-16.1-16z"/></g><g><path fill="#43A838" d="M471.8 378.4l-16.7 34.3c-.4.8-1.5.9-2 .2l-31.9-45.6c-.6-.9-1.9-.6-2.1.5l-14.8 74.4c-.2 1.2-2 1.3-2.3.1l-26.7-106.7c-.3-1.2-2-1.2-2.3 0l-22.5 80.9c-.3 1.1-1.8 1.2-2.2.2l-26-58.2c-.5-1-1.9-.9-2.2.1L299 428.2c-.3 1.2-2 1.1-2.3-.1L284.4 377c-.3-1.1-1.8-1.2-2.3-.2l-34 81.1c-.4 1-1.8 1-2.2 0l-45.5-107.5c-.5-1.2-2.4-.8-2.3.6 1.7 20.7 4.2 77.7-17 103.9-.6.7-1.7.6-2.1-.3l-22.4-61.9c-.4-1.1-1.9-1-2.3.1L135.7 458c-.3 1-1.7 1.2-2.2.3-6.5-12-34.3-65.3-20.5-113.1 0 0-36.3 47.7-37.5 82.8 0 1.3-1.8 1.6-2.3.4l-15-39.9c-.4-1.1-2-1-2.3.1l-18.3 65.3c-.4 1.3-2.2 1.1-2.3-.2-1.5-13.9-8-47.1-35.3-78.4v4.7c0 66.3 53.7 120 120 120h260c47.7 0 88.9-27.9 108.3-68.2L474 378.6c-.3-1-1.7-1.2-2.2-.2z"/><circle cx="76.9" cy="474.3" r="10.2" fill="#338727"/><path fill="#338727" d="M95.7 500h19.6s0-.1 0-.1c-6.3-.2-12.5-1-18.6-2.2-.4.7-.8 1.5-1 2.3zM105.5 492.7c-3.7 0-7 2-8.8 5 6 1.2 12.2 1.9 18.6 2.2-1.3-4.2-5.2-7.2-9.8-7.2z"/><circle cx="446.6" cy="459.5" r="10.2" fill="#338727"/></g><g><path fill="#EFD6B8" d="M50.7 325.5l12.6-19.6 26.2.1 25.3-29.2 16.7-1.7s7.2-19.7 3.8-25.1c-32.8-52.6 0-74.1 0-74.1-4.3 49.1 23.3 49.3 23.3 49.3l68.6.3 50-19.8-4.3-23.2 19-11.5 31.6 4.2L354 172l13.3 12.2 25.7 8.1-17.7 23.2-11.5 1.7 9.2 8.6-59.4 35.1 15.8 8.6 42.5 3 36.5 18-15 12-31.2-6.5-47.5 3-29.7-11.6-39.5 9.1-47.3-14.3-20.5 15.7-48.2 7.3-29.3 20.3L58 329l-7.3-3.5z"/><path fill="#E7C59E" d="M50.7 325.5s10.2-8.2 21.7-10.3c2.6-.5 20.7.5 25.3-2.7 8.9-6.2 13.7-25.6 22.3-28.3 5.8-1.8 11.8 1.5 15.3 0 2.2-.9 6.1-5.4 5-7.3-5-8.7 1-30.3 1-30.3-21.7-17.3-15.7-48-15.7-48 5.7 37.3 35.7 38.3 35.7 38.3s64.5 4.6 85-1c24.3-6.7 46.2-22.7 46.2-22.7s-20.3-15.2-19.8-22.8c.4-6.2 18.3-16.6 18.3-16.6l36.7 7s17.5-2.6 22.7-.3c4.5 1.9 10.2 10.9 14.7 13l25 3.8-21.3 20.5 6.7 6.3-7.3 7.3-20.3 3-32.3 24-9.8-5s-4.2 7.1-3.8 9.6c1.3 9.3 22 16.7 22 16.7s37.1 1.3 43.7 2.3c9.8 1.4 36.6 15.1 36.6 15.1l-15 7.6-26.5-11.3-47.6 5.5-31.4-9.8-42 5.2L202 283l-40.7 18.8-35.8 3.8-30.3 22.7-44.5-2.8z"/><path fill="#C39A73" d="M86.5 332.8H57v-12h27.1c6-2.8 16.3-10.5 24-16.3 3.6-2.7 6.8-5 9.2-6.7 13.1-8.9 47-9.9 54.1-10 11.8-3.9 27.5-15.7 27.7-15.8l2.9-2.2 9.9 4.7 60.1 3.2 1.4 3.7c1 2.6.7 5.5-.9 7.9-4.6 6.9-22.1 8.8-35.9 9.2l-.3-10.7-27.4-1.5-5.5-2.6c-5.7 4-18.6 12.5-29.2 15.8l-.8.3h-.9c-14.4.1-40.2 2.4-48.3 8-2.2 1.5-5.2 3.8-8.8 6.4-9.1 6.8-20.5 15.3-27.7 18.2l-1.2.4zM320.3 188.5s-17.7-5.7-27.8-4c-4.1.7-15.2 6.3-15.2 6.3l7.8 19.7 35.2-22zM306.8 207.3s12.9 17.3 12.3 24.4c-.5 7.1-14.8 22.8-14.8 22.8l8 4 29.9-24.6 30.4-10.4c-55.3 5.2-65.8-16.2-65.8-16.2zM400.2 258.5L362.3 247l-38.7 1.2-8.3 10.3 14.2 11 51 5.8 14.7-6.1zM43.6 302.4l15.9-17.3L83 285l25.3-29 27-2-.3 21-21.5.3-24 30.7z"/><path d="M93.3 334.5H58c-1 0-6.2-.4-9.5-7.8-.2-.5-.3-1-.4-1.5-.1-.6-1.8-14.5 17.5-24.2.2-.1.5-.2.7-.3.5-.2 5.1-1.6 12.1-1.6 3 0 6.1.3 9.1.8l24.4-28.1c1-1.2 2.5-1.9 4-1.9l12.8-.3c-.5-5.9-.4-14.7 3.1-21.8-5.8-5.8-16.4-18.7-17.1-35.9-.6-15.3 6.6-30.1 21.5-44 2-1.8 5-2 7.1-.3 2.1 1.7 2.7 4.6 1.4 7-.1.2-9.3 17.2-3.3 30.8 3.4 7.6 11.1 13 23 16l24.7-1.5c.1 0 .2 0 .3 0h41.3c9.2-2.3 31.2-9.1 41.4-17.1-3.3-5.1-7.5-13.8-4.4-22.3 3.1-8.4 17.3-14.6 23.8-15.1.3 0 .7 0 1.1 0 5 0 16.5 1.5 24.9 3.7.6-1.7 1-2 2.8-2.5 1.6-.5 4.6-1.1 12.7-1.1 9.6 0 20.9-.1 21.4-.1.6 0 2.2 1.2 2.8 1.4 4.4 1.9 10.1 8 13.7 12 .1 0 2.3 1 2.4 1 20.1 0 22.6 4.7 24.1 8.3 5.5 12.5-9.2 25-10.8 26.4-.1 0-.1.1-.2.1l-5.4 4.1c-2 1.5-2.8 3.5-4.8 1.9-.1-.1-2.2-2.1-2.2-2.2-.1 0 2.7 2.1 2.6 2.1l2.2 2.8c1.3 1.2 1.9 2.9 1.7 4.7-.2 1.7-1.2 3.3-2.7 4.1l-7 4c-1 .5-2 .8-3.1.7 0 0-1.9-.1-4.7-.1-10.4 0-18.8 1.8-22.3 4.8-.5.4-1 .7-1.6 1 0 0-7.6 3.3-17.7 17.1l9.6 4.4 41.5 2.9c.5 0 .9.1 1.4.3 1.1.4 26.1 8.9 38.3 19 2.1 1.7 3 4.3 2.4 7-1.6 7.7-17.3 13.9-19.4 14.6-1.5.4-3.7.7-6.4.7-1 0-4.4 0-6.8-.6-5.4-1.2-16.2-6.6-20.3-8.7l-49.8 5.8c-1 .1-2 0-3-.5l-19.6-9.2c-4.3 3.2-9.6 4.3-12.7 4.3-1.2 0-2.6 1-4.1.9-1.2-.1-3-.1-5.4-.1-9.7 0-25-.4-25.1-.4-.6 0-1.2 0-1.8-.2l-39.5-11.5c-.1 0-.3-.1-.4-.1-5.3 5.5-11.6 11.2-16.3 13.3-7.1 3.3-18.5 4.2-30.6 5.2-9.4.8-19.2 1.6-24.2 3.5-6.2 2.4-10.9 6.8-15.8 11.5-5.3 5-10.7 10.3-18.3 12.6-.7.1-1.3.2-1.8.2zm-34.1-11h33.1c4.8-1.7 8.7-5.5 13.2-9.8 5.2-5 11.1-10.6 19.5-13.8 6.5-2.5 16.5-3.3 27.2-4.1 10.1-.8 21.6-1.8 26.9-4.2 5.1-2.3 16.6-14.5 22.6-21.6 1.8-2.1 4.8-2.5 7.1-1.1s3.2 4.3 2.2 6.8l-1.6 3.8 32.7 9.5c3.5-.1 16-.6 24.7-.6 2.6 0 4.5 0 6 .1.2 0 .3 0 .5 0-2.5-1.5-5.6-3.1-8.6-4.5-2.8-1.3-3.9-4.6-2.7-7.3 1.3-2.8 4.6-3.9 7.3-2.7l42.6 19.8 50-5.8c1.1-.1 2.2.1 3.2.6 5.4 2.9 15.4 7.7 19.1 8.5.5.1 2.2.3 4.4.3 2 0 3.1-.2 3.4-.2 2.5-.7 6.9-3.1 9.6-5-10.4-7-27.2-13.1-30.7-14.3l-41.8-2.9c-.7 0-1.3-.2-1.9-.5l-16.5-7.5c-1.5-.7-2.6-1.9-3-3.5-.4-1.5-.2-3.2.7-4.5 12.2-18.7 22.5-24.7 25.7-26.2 7.3-5.7 19.6-6.9 28.8-6.9.8 0 1.6 0 2.3 0l-7.9-7.3c-1.6-1.5-2.2-3.9-1.4-6 .8-2.1 2.8-3.5 5-3.6 4.8-.1 13.1-1.1 15.7-2.7 1.2-.7 3.8-2.7 3.8-2.7 3.4-3.1 7.2-6 6.2-9.4-.8-1.1-4.1-1.1-14.2-2.2-1.6-.2-3.6-1-3.7-1-1.7.1-3.3-1.6-4.4-2.9-4.4-5.1-9.6-9.2-11.9-10.7-3.4-1.4-11.6-1.6-19.4-.8-.2 0-.4 0-.6 0 .8 1.6.8 3.5-.2 5.1-1.3 2.2-3.9 3.3-6.4 2.6-10-3-26.6-6.9-31.9-6.9-.1 0 .1 0 0 0-4.6.3-14 4.7-14.8 7.1-1.9 5.2 2.5 13.1 4.5 15.5 1.8 2 1.8 5.1 0 7.2-11.8 14-46.9 22.8-50.9 23.8-.4.1-.9.2-1.3.2l-41.8 1-25.3.5c-.5 0-1.1 0-1.6-.1-15.9-3.9-26.4-11.4-31.3-22.5-1.9-4.4-2.8-8.9-2.9-13.3-2.1 5-3 10-2.8 15 .7 18.3 16.5 31 16.7 31.2 1.2.9 1.9 2.3 2.1 3.8s-.4 3-1.4 4.1c-5 5.6-3.6 19-2.7 23.2.3 1.6-.1 3.3-1.1 4.5-1 1.3-2.5 2-4.2 2.1l-16.6.4-24.9 28.7c-1.3 1.5-3.4 2.2-5.4 1.7 0 0-6.6-.2-9.8-.2-4.3 0-7.4-.3-8.3 0-9.4 4.8-10.8 10.1-11 12 0 0 0 .1.1.2z"/><circle cx="349" cy="193" r="4.5"/><circle cx="437.8" cy="215.6" r="23.8"/><circle cx="437.8" cy="215.6" r="11.8" fill="#F9E978"/><path fill="none" stroke="#000" stroke-width="11" stroke-miterlimit="10" d="M305.5 198.5s-9.7 8.3-17.5 12c-4.5 2.2-8.5-7-8.5-7M135.3 254s-16.9-1-22.3 0c-9.9 1.8-23.5 23.4-30 31.1 0 0-19-4-26 1.5 0 0-17.5 12-12.5 18.5 0 0 4.5 2.1 18.8.9M308.5 256l3.8 5M323.6 248.2s27-1.7 34.4-1.7c5 0 42 7 43 13.5 0 0 0 11-20.5 15.3" stroke-linecap="round" stroke-linejoin="round"/></g></svg>